# xmcd
#
# Track frame offsets:
#	750
#	16882
#	32342
#	48647
#	59637
#	75107
#	89447
#	104225
#	120922
#	138860
#	153077
#	169142
#
# Disc length: 2450 seconds
#
# Revision: 1
# Processed by: cddbd v1.5.1PL0 Copyright (c) Steve Scherf et al.
# Submitted via: audiograbber 1.83.01
#
DISCID=8b09880c
DTITLE=StarDisc Karaoke - #002 - Country
DYEAR=1900
DGENRE=
TTITLE0=Tanya Tucker - Hangin' In
TTITLE1=George Strait - The Man In love With You
TTITLE2=Toby Keith - Who's That Man?
TTITLE3=Trisha Yearwood - XXX's and OOO's (An American Girl)
TTITLE4=Garth Brooks - Hard Luck Woman
TTITLE5=The Mavericks - Oh What A Thrill
TTITLE6=Rick Trevino - She Can't Say I Didn't Cry
TTITLE7=Mark Chesnutt - She Dreams
TTITLE8=Collin Raye - Little Rock
TTITLE9=Little Texas - Stop On A Dime
TTITLE10=Toby Keith - Wish I Didn't Know Now
TTITLE11=Alan Jackson - Summertime Blues
EXTD=CD+G tracks, karaoke format
EXTT0=
EXTT1=
EXTT2=
EXTT3=
EXTT4=
EXTT5=
EXTT6=
EXTT7=
EXTT8=
EXTT9=
EXTT10=
EXTT11=
PLAYORDER=
